HIERARCHY
ROOT Root
{
  OFFSET 0.0 0.0 0.0
  CHANNELS 6 Xposition Yposition Zposition Zrotation Yrotation Xrotation
  JOINT Hips
  {
    OFFSET 0.0 100.0 0.0
    CHANNELS 6 Xposition Yposition Zposition Zrotation Yrotation Xrotation
    JOINT Spine1
    {
      OFFSET 5.003913 -0.037094 -0.013727
      CHANNELS 3 Zrotation Yrotation Xrotation
      JOINT Spine2
      {
        OFFSET 7.125363 -1e-06 0.0
        CHANNELS 3 Zrotation Yrotation Xrotation
        JOINT Chest
        {
          OFFSET 7.594027 1e-06 0.0
          CHANNELS 3 Zrotation Yrotation Xrotation
          JOINT Neck1
          {
            OFFSET 26.313086 -0.460272 -0.181672
            CHANNELS 3 Zrotation Yrotation Xrotation
            JOINT Neck2
            {
              OFFSET 8.045911 0.0 0.0
              CHANNELS 3 Zrotation Yrotation Xrotation
              JOINT Head
              {
                OFFSET 6.432774 0.0 0.0
                CHANNELS 3 Zrotation Yrotation Xrotation
                JOINT HeadEnd
                {
                  OFFSET 16.169773 0.06451 0.00362
                  CHANNELS 3 Zrotation Yrotation Xrotation
                }
                JOINT Jaw
                {
                  OFFSET 0.108741 3.12938 0.002639
                  CHANNELS 3 Zrotation Yrotation Xrotation
                }
                JOINT LeftEye
                {
                  OFFSET 4.45173 8.166359 3.206392
                  CHANNELS 3 Zrotation Yrotation Xrotation
                }
                JOINT RightEye
                {
                  OFFSET 4.436895 8.135758 -3.222429
                  CHANNELS 3 Zrotation Yrotation Xrotation
                }
              }
            }
          }
          JOINT LeftShoulder
          {
            OFFSET 23.218927 5.195579 1.621656
            CHANNELS 3 Zrotation Yrotation Xrotation
            JOINT LeftArm
            {
              OFFSET 15.902118 2e-06 -2e-06
              CHANNELS 3 Zrotation Yrotation Xrotation
              JOINT LeftForeArm
              {
                OFFSET 28.739307 0.0 -1e-06
                CHANNELS 3 Zrotation Yrotation Xrotation
                JOINT LeftHand
                {
                  OFFSET 27.093981 -4e-06 0.0
                  CHANNELS 3 Zrotation Yrotation Xrotation
                  JOINT LeftHandThumb1
                  {
                    OFFSET 2.276781 3.380274 0.83384
                    CHANNELS 3 Zrotation Yrotation Xrotation
                    JOINT LeftHandThumb2
                    {
                      OFFSET 4.705309 -1e-06 -1e-06
                      CHANNELS 3 Zrotation Yrotation Xrotation
                      JOINT LeftHandThumb3
                      {
                        OFFSET 2.798515 0.0 3e-06
                        CHANNELS 3 Zrotation Yrotation Xrotation
                        JOINT LeftHandThumbEnd
                        {
                          OFFSET 3.180793 4e-06 -4e-06
                          CHANNELS 3 Zrotation Yrotation Xrotation
                        }
                      }
                    }
                  }
                  JOINT LeftHandIndex1
                  {
                    OFFSET 3.247786 2.352677 0.137192
                    CHANNELS 3 Zrotation Yrotation Xrotation
                    JOINT LeftHandIndex2
                    {
                      OFFSET 6.367095 1e-06 0.0
                      CHANNELS 3 Zrotation Yrotation Xrotation
                      JOINT LeftHandIndex3
                      {
                        OFFSET 3.662364 0.0 0.0
                        CHANNELS 3 Zrotation Yrotation Xrotation
                        JOINT LeftHandIndex4
                        {
                          OFFSET 2.329242 4e-06 -4e-06
                          CHANNELS 3 Zrotation Yrotation Xrotation
                          JOINT LeftHandIndexEnd
                          {
                            OFFSET 2.767823 1e-06 0.0
                            CHANNELS 3 Zrotation Yrotation Xrotation
                          }
                        }
                      }
                    }
                  }
                  JOINT LeftHandMiddle1
                  {
                    OFFSET 3.163612 0.945023 -0.406112
                    CHANNELS 3 Zrotation Yrotation Xrotation
                    JOINT LeftHandMiddle2
                    {
                      OFFSET 6.276789 3e-06 0.0
                      CHANNELS 3 Zrotation Yrotation Xrotation
                      JOINT LeftHandMiddle3
                      {
                        OFFSET 4.35652 -1e-06 4e-06
                        CHANNELS 3 Zrotation Yrotation Xrotation
                        JOINT LeftHandMiddle4
                        {
                          OFFSET 2.996877 0.0 8e-06
                          CHANNELS 3 Zrotation Yrotation Xrotation
                          JOINT LeftHandMiddleEnd
                          {
                            OFFSET 2.323256 3e-06 -4e-06
                            CHANNELS 3 Zrotation Yrotation Xrotation
                          }
                        }
                      }
                    }
                  }
                  JOINT LeftHandRing1
                  {
                    OFFSET 2.882606 -0.309162 0.107445
                    CHANNELS 3 Zrotation Yrotation Xrotation
                    JOINT LeftHandRing2
                    {
                      OFFSET 6.033198 0.0 4e-06
                      CHANNELS 3 Zrotation Yrotation Xrotation
                      JOINT LeftHandRing3
                      {
                        OFFSET 4.350578 3e-06 0.0
                        CHANNELS 3 Zrotation Yrotation Xrotation
                        JOINT LeftHandRing4
                        {
                          OFFSET 2.651321 2e-06 -7e-06
                          CHANNELS 3 Zrotation Yrotation Xrotation
                          JOINT LeftHandRingEnd
                          {
                            OFFSET 1.937663 1e-06 -4e-06
                            CHANNELS 3 Zrotation Yrotation Xrotation
                          }
                        }
                      }
                    }
                  }
                  JOINT LeftHandPinky1
                  {
                    OFFSET 2.865315 -1.525436 0.575687
                    CHANNELS 3 Zrotation Yrotation Xrotation
                    JOINT LeftHandPinky2
                    {
                      OFFSET 5.54936 1e-06 -8e-06
                      CHANNELS 3 Zrotation Yrotation Xrotation
                      JOINT LeftHandPinky3
                      {
                        OFFSET 3.070974 0.0 -4e-06
                        CHANNELS 3 Zrotation Yrotation Xrotation
                        JOINT LeftHandPinky4
                        {
                          OFFSET 1.549672 1e-06 0.0
                          CHANNELS 3 Zrotation Yrotation Xrotation
                          JOINT LeftHandPinkyEnd
                          {
                            OFFSET 1.952123 0.0 0.0
                            CHANNELS 3 Zrotation Yrotation Xrotation
                          }
                        }
                      }
                    }
                  }
                }
              }
            }
          }
          JOINT RightShoulder
          {
            OFFSET 23.161716 5.296122 -1.380114
            CHANNELS 3 Zrotation Yrotation Xrotation
            JOINT RightArm
            {
              OFFSET -16.027195 -2e-06 1.1e-05
              CHANNELS 3 Zrotation Yrotation Xrotation
              JOINT RightForeArm
              {
                OFFSET -28.736639 4e-06 2e-06
                CHANNELS 3 Zrotation Yrotation Xrotation
                JOINT RightHand
                {
                  OFFSET -27.133619 6e-06 0.0
                  CHANNELS 3 Zrotation Yrotation Xrotation
                  JOINT RightHandThumb1
                  {
                    OFFSET -2.274328 -3.351035 -0.83067
                    CHANNELS 3 Zrotation Yrotation Xrotation
                    JOINT RightHandThumb2
                    {
                      OFFSET -4.703594 -3e-06 2e-06
                      CHANNELS 3 Zrotation Yrotation Xrotation
                      JOINT RightHandThumb3
                      {
                        OFFSET -2.794935 -4e-06 -3e-06
                        CHANNELS 3 Zrotation Yrotation Xrotation
                        JOINT RightHandThumbEnd
                        {
                          OFFSET -3.183852 4e-06 1e-06
                          CHANNELS 3 Zrotation Yrotation Xrotation
                        }
                      }
                    }
                  }
                  JOINT RightHandIndex1
                  {
                    OFFSET -3.253496 -2.33755 -0.127667
                    CHANNELS 3 Zrotation Yrotation Xrotation
                    JOINT RightHandIndex2
                    {
                      OFFSET -6.344434 0.0 0.0
                      CHANNELS 3 Zrotation Yrotation Xrotation
                      JOINT RightHandIndex3
                      {
                        OFFSET -3.654871 0.0 -8e-06
                        CHANNELS 3 Zrotation Yrotation Xrotation
                        JOINT RightHandIndex4
                        {
                          OFFSET -2.327586 -1e-06 0.0
                          CHANNELS 3 Zrotation Yrotation Xrotation
                          JOINT RightHandIndexEnd
                          {
                            OFFSET -2.770001 3e-06 8e-06
                            CHANNELS 3 Zrotation Yrotation Xrotation
                          }
                        }
                      }
                    }
                  }
                  JOINT RightHandMiddle1
                  {
                    OFFSET -3.168223 -0.944764 0.411762
                    CHANNELS 3 Zrotation Yrotation Xrotation
                    JOINT RightHandMiddle2
                    {
                      OFFSET -6.266691 -1e-06 -4e-06
                      CHANNELS 3 Zrotation Yrotation Xrotation
                      JOINT RightHandMiddle3
                      {
                        OFFSET -4.348901 0.0 0.0
                        CHANNELS 3 Zrotation Yrotation Xrotation
                        JOINT RightHandMiddle4
                        {
                          OFFSET -3.00024 2e-06 -4e-06
                          CHANNELS 3 Zrotation Yrotation Xrotation
                          JOINT RightHandMiddleEnd
                          {
                            OFFSET -2.321477 -4e-06 -4e-06
                            CHANNELS 3 Zrotation Yrotation Xrotation
                          }
                        }
                      }
                    }
                  }
                  JOINT RightHandRing1
                  {
                    OFFSET -2.885654 0.293261 -0.119232
                    CHANNELS 3 Zrotation Yrotation Xrotation
                    JOINT RightHandRing2
                    {
                      OFFSET -6.032835 -1e-06 -4e-06
                      CHANNELS 3 Zrotation Yrotation Xrotation
                      JOINT RightHandRing3
                      {
                        OFFSET -4.33881 0.0 -4e-06
                        CHANNELS 3 Zrotation Yrotation Xrotation
                        JOINT RightHandRing4
                        {
                          OFFSET -2.654903 -4e-06 -4e-06
                          CHANNELS 3 Zrotation Yrotation Xrotation
                          JOINT RightHandRingEnd
                          {
                            OFFSET -1.935122 0.0 4e-06
                            CHANNELS 3 Zrotation Yrotation Xrotation
                          }
                        }
                      }
                    }
                  }
                  JOINT RightHandPinky1
                  {
                    OFFSET -2.866241 1.503904 -0.60527
                    CHANNELS 3 Zrotation Yrotation Xrotation
                    JOINT RightHandPinky2
                    {
                      OFFSET -5.553177 -2e-06 0.0
                      CHANNELS 3 Zrotation Yrotation Xrotation
                      JOINT RightHandPinky3
                      {
                        OFFSET -3.062664 -1e-06 -4e-06
                        CHANNELS 3 Zrotation Yrotation Xrotation
                        JOINT RightHandPinky4
                        {
                          OFFSET -1.546529 2e-06 4e-06
                          CHANNELS 3 Zrotation Yrotation Xrotation
                          JOINT RightHandPinkyEnd
                          {
                            OFFSET -1.952341 0.0 -4e-06
                            CHANNELS 3 Zrotation Yrotation Xrotation
                          }
                        }
                      }
                    }
                  }
                }
              }
            }
          }
        }
      }
    }
    JOINT LeftLeg
    {
      OFFSET -8.443107 2.567604 10.043214
      CHANNELS 3 Zrotation Yrotation Xrotation
      JOINT LeftShin
      {
        OFFSET 43.229198 1e-06 -1e-06
        CHANNELS 3 Zrotation Yrotation Xrotation
        JOINT LeftFoot
        {
          OFFSET 42.298611 1e-06 1e-06
          CHANNELS 3 Zrotation Yrotation Xrotation
          JOINT LeftToeBase
          {
            OFFSET 14.165858 1e-06 0.0
            CHANNELS 3 Zrotation Yrotation Xrotation
            JOINT LeftToeEnd
            {
              OFFSET 6.7141 -0.234461 0.0
              CHANNELS 3 Zrotation Yrotation Xrotation
            }
          }
        }
      }
    }
    JOINT RightLeg
    {
      OFFSET -8.303923 2.592729 -10.047278
      CHANNELS 3 Zrotation Yrotation Xrotation
      JOINT RightShin
      {
        OFFSET -43.369682 0.0 1e-06
        CHANNELS 3 Zrotation Yrotation Xrotation
        JOINT RightFoot
        {
          OFFSET -42.260784 4e-06 2e-06
          CHANNELS 3 Zrotation Yrotation Xrotation
          JOINT RightToeBase
          {
            OFFSET -14.222245 -2e-06 -1e-06
            CHANNELS 3 Zrotation Yrotation Xrotation
            JOINT RightToeEnd
            {
              OFFSET -6.660062 0.232574 -2e-06
              CHANNELS 3 Zrotation Yrotation Xrotation
            }
          }
        }
      }
    }
  }
}
MOTION
Frames: 4
Frame Time: 0.03333333333333333
0.0 0.0 0.0 0.0 -0.0 0.0 -0.187301 97.958351 -7.601194 91.247887 -2.857501 89.513 4.496956 -0.840424 0.253001 -9.530005 -0.859626 2.227897 16.414181 -1.261605 0.181616 16.949894 0.805353 3.337399 -2.53179 -0.450596 -3.053161 -40.052662 -0.058332 -5.038951 0.000649 -0.000136 0.000309 -0.057202 0.022061 -0.002013 0.109977 -0.137485 -0.030586 0.140051 0.176075 0.013415 -107.202087 -68.882637 128.275101 6.270681 -50.555061 17.762865 108.556984 -1.426441 -1.262365 -4.198157 -4.769673 18.243687 17.643414 -26.298946 52.347923 -19.46316 -14.388649 29.402117 -0.004899 -8.77754 -0.000684 15.91715 -18.206165 6.632551 -0.60657 -1.792207 -3.925307 -4.798419 -11.057097 -2.937633 0.004464 -20.992748 0.002979 -5.016185 -25.054375 -4.041305 0.008939 0.001489 0.000348 -10.618968 -5.671638 -3.592291 10.556829 -17.950541 -3.119614 0.004869 -13.82399 0.006169 -0.493146 -31.199501 -4.028949 -11.854663 -60.515854 7.485053 -13.980219 -7.140877 -2.897726 13.795047 -8.398658 -3.224963 0.343932 -34.228302 0.773294 -0.972134 -17.72966 2.626855 -0.004597 -0.000753 0.000753 -17.325914 -20.104542 -4.231797 21.758358 -1.634069 3.869258 0.004196 -6.34984 -0.001236 -1.698516 -22.603714 -6.207246 0.001752 -0.005227 0.000406 50.061352 -78.288544 147.389572 36.709316 -43.869591 6.626228 118.182518 1.779403 -0.429777 2.192219 -5.546735 9.209951 22.241209 -20.42625 50.005901 -16.705429 -16.761681 28.512325 -0.019867 -12.705328 -0.006147 16.811462 -18.146732 2.783194 -0.106349 -1.520784 -4.288023 -5.051672 -5.597013 -2.958137 0.011559 -11.04379 -0.000945 -6.108197 -15.906633 -3.850342 -0.011088 -0.001683 -0.002 -10.296621 -5.679711 -4.355125 11.047973 -11.318926 -2.37258 -1.377884 -14.254997 -6.32312 -0.61038 -26.968647 -3.815066 -4.508947 -50.272655 -3.588687 -13.72346 -7.355227 -3.738775 18.170254 -14.071735 -3.242445 0.007136 -18.810528 0.003823 -0.432017 -8.456226 2.576989 0.007743 -0.003837 0.00232 -15.931232 -20.107565 -5.489682 30.454117 -7.210878 1.751079 0.001364 -8.174347 0.00124 -1.854052 -22.869678 -6.176589 -0.001813 9.7e-05 0.003378 151.234192 1.325341 -9.651612 26.649155 0.160431 -0.374432 -75.826431 11.180955 -12.537392 -8.928725 1.99384 1.972475 -0.995706 0.002024 0.001688 0.478596 -3.451972 -11.160897 76.46656 -0.631464 -0.02286 -63.71331 2.134179 -0.65706 -10.04297 0.757067 1.278818 -1.001312 0.000369 0.000881 
0.0 0.0 0.0 0.0 -0.0 0.0 -0.129942 94.779266 0.443675 92.951241 -1.716892 90.17112 5.424752 -2.476756 -0.436205 -9.421495 -1.044624 1.447493 17.145548 -1.519231 -0.962326 16.295507 1.099809 3.126199 -2.564044 -0.472506 -2.752339 -43.042561 -0.439058 -4.200752 -0.006762 -0.00023 -0.000759 -0.077682 -0.002504 -0.047947 0.123908 -0.104887 -0.076223 0.1182 0.093917 -0.02767 -115.25779 -69.544235 136.086288 14.08522 -47.387653 11.98348 104.562332 -0.695414 -0.528107 -3.652791 -2.314318 15.814756 17.607956 -26.340136 52.462845 -19.47854 -14.392816 29.447933 0.007925 -8.785837 0.004793 15.705588 -18.194548 6.811941 -0.613156 -1.783168 -3.888933 -4.805264 -11.063627 -2.940153 0.008922 -21.007334 -0.000575 -5.030986 -25.036688 -4.025546 0.000966 -0.006224 0.004549 -10.636602 -5.683521 -3.566337 10.583916 -17.938309 -3.112545 -0.011093 -13.832623 -0.002257 -0.509602 -31.2218 -3.999989 -11.978762 -60.214115 7.584751 -13.984408 -7.159337 -2.87237 13.788064 -8.38918 -3.239188 0.341694 -34.274288 0.774169 -0.990952 -17.749485 2.633277 -0.014111 -0.002877 -0.00684 -17.347696 -20.098379 -4.210883 21.756926 -1.633837 3.863603 -0.002518 -6.362982 0.001084 -1.726177 -22.602665 -6.185992 0.005344 -0.002802 -0.003606 50.507568 -76.326263 147.441513 30.640728 -44.583237 10.867095 111.795059 1.31271 -0.412808 2.035941 -3.972317 10.20518 22.24844 -20.399044 49.933361 -16.706831 -16.722599 28.481628 -0.015679 -12.688032 -0.011635 16.698732 -18.18261 2.819365 -0.106992 -1.512021 -4.28961 -5.033199 -5.630131 -2.961757 0.001596 -11.0407 0.002035 -6.103224 -15.910507 -3.844944 0.000526 3.9e-05 0.00154 -10.285954 -5.691149 -4.355731 11.042746 -11.312675 -2.371472 -1.393775 -14.26371 -6.332794 -0.614743 -26.949146 -3.848407 -4.73382 -50.062717 -3.284499 -13.709623 -7.381987 -3.737424 18.145048 -14.073653 -3.226302 0.015536 -18.807587 3.1e-05 -0.424627 -8.463786 2.559151 0.002302 -0.000489 0.003197 -15.911325 -20.120184 -5.493718 30.410389 -7.214827 1.753018 0.006026 -8.177979 -0.006154 -1.843772 -22.874163 -6.170864 0.002539 0.00333 -0.001983 151.751831 4.041273 -7.335568 39.591866 0.181283 -0.833561 -82.191658 3.419896 1.540449 -6.690159 1.663954 2.093843 -0.997874 4.4e-05 0.000737 -7.461244 -7.92576 -10.306564 91.632889 -0.278551 0.000647 -67.255821 -0.919628 0.665369 -9.023683 0.726887 1.413058 -0.999584 0.00074 0.001188 
0.0 0.0 0.0 0.0 -0.0 0.0 -0.671587 93.138222 11.617628 94.354614 -0.29276 90.234329 6.337612 -3.424551 -0.974822 -9.133141 -1.236277 1.113369 18.200102 -2.248129 -1.887813 15.79403 1.719879 3.026721 -2.612154 -0.497869 -2.186179 -46.369774 -0.321742 -2.812658 -1.7e-05 -0.00031 -2e-05 0.000738 -0.013181 -0.060507 0.128605 -0.056845 -0.080636 0.129987 0.020671 -0.053425 -122.091042 -70.563248 142.444885 24.927702 -42.29985 5.055713 99.427376 -0.447691 0.100313 -3.531382 -1.142646 17.469442 17.580225 -26.332376 52.365791 -19.511364 -14.426762 29.43705 -0.001562 -8.767464 0.005135 15.543486 -18.046961 6.759733 -0.60965 -1.797705 -3.888972 -4.787557 -11.037982 -2.939531 0.026205 -20.981745 0.011413 -5.003182 -25.021193 -4.012138 0.008829 -0.004117 0.003772 -10.628944 -5.667285 -3.558089 10.593288 -17.936848 -3.132087 -0.006209 -13.832453 0.010397 -0.493932 -31.206369 -3.999026 -11.444618 -59.445049 7.271801 -13.972371 -7.127501 -2.867898 13.781203 -8.415138 -3.247037 0.36322 -34.209171 0.792981 -0.943548 -17.733101 2.621071 -0.003183 0.010041 0.006643 -17.321789 -20.077045 -4.187734 21.763914 -1.652109 3.842286 0.006118 -6.335922 0.000459 -1.692855 -22.60165 -6.178971 -0.000432 -0.004525 0.001923 51.913391 -74.99514 148.275955 24.54829 -45.416759 15.134956 102.841743 0.682247 -0.344806 2.322656 -0.793309 16.984032 22.152699 -20.343365 49.943466 -16.736515 -16.796995 28.49419 -0.013048 -12.713519 0.010694 16.509251 -18.000444 2.604327 -0.090589 -1.507807 -4.278511 -5.050939 -5.608879 -2.951231 -0.007151 -11.030918 0.002364 -6.086449 -15.899447 -3.849843 0.010109 -0.000765 0.001328 -10.275475 -5.671524 -4.326544 11.046155 -11.288564 -2.389007 -1.392137 -14.238335 -6.324064 -0.585338 -26.922859 -3.843842 -4.630677 -49.728359 -3.390314 -13.702259 -7.370307 -3.705027 18.157459 -14.046548 -3.259576 0.011735 -18.791136 -0.006458 -0.422776 -8.453535 2.551828 -0.006679 4.4e-05 0.001571 -15.926187 -20.088936 -5.452127 30.460165 -7.180254 1.701119 0.002214 -8.159092 -0.00422 -1.864857 -22.835621 -6.16262 0.000164 -0.000794 -0.001555 157.756546 5.904242 -5.154221 46.628361 0.210036 -0.746141 -93.981606 0.905883 1.947364 -5.453008 1.505085 2.066402 -0.998134 3.8e-05 -4.2e-05 -17.683859 -10.740417 -7.698995 102.016182 -0.18134 -0.014703 -69.4086 -1.95069 2.664827 -9.127674 0.721558 1.515982 -0.997525 0.000936 -0.000207 
0.0 0.0 0.0 0.0 -0.0 0.0 -1.292709 93.050766 22.203197 93.552124 0.510666 90.153214 6.751147 -3.227848 -1.256935 -8.918382 -1.180159 0.201126 18.16139 -1.664377 -2.617108 15.971339 1.138954 2.663489 -2.556021 -0.436368 -0.805037 -46.756832 -0.163058 -1.759713 -0.004324 -0.00045 -0.000783 0.067917 0.035354 0.07851 0.204324 -0.000811 0.092835 0.206612 0.065021 0.05761 -122.118362 -72.546867 141.662643 32.742367 -40.644039 -0.609181 99.769928 -0.545158 0.238751 -2.734262 -2.336815 19.829311 17.601654 -26.386522 52.495071 -19.477602 -14.431881 29.437891 -0.002909 -8.777181 0.013195 15.591618 -17.954514 6.375926 -0.594595 -1.801584 -3.890467 -4.802529 -11.024531 -2.934127 -0.004171 -20.98065 0.009024 -5.008459 -25.027954 -4.0116 -0.009705 0.001256 -0.002427 -10.611404 -5.675794 -3.55935 10.567099 -17.923174 -3.108151 0.003852 -13.79188 0.000554 -0.514412 -31.154099 -4.008927 -10.955986 -59.076897 6.633731 -13.978078 -7.138417 -2.858716 13.808045 -8.40676 -3.235241 0.31827 -34.217617 0.796751 -0.962229 -17.739168 2.627967 0.001989 0.005619 -0.000547 -17.321091 -20.075832 -4.196136 21.760799 -1.661227 3.84593 -0.013137 -6.340794 0.013204 -1.683722 -22.600136 -6.185879 -1.3e-05 -0.003059 -0.00167 55.334961 -73.917244 145.849121 16.821829 -46.0079 21.714251 98.83149 0.557104 -0.350617 2.650062 -0.055358 22.011209 22.195469 -20.360893 49.988304 -16.685289 -16.732119 28.480501 0.005944 -12.702941 -0.003439 16.636917 -17.719543 2.410855 -0.089476 -1.481873 -4.285517 -5.052481 -5.625505 -2.930737 -0.007643 -11.027635 -0.003073 -6.100378 -15.921979 -3.82965 -0.006605 0.004914 -0.003628 -10.275383 -5.651195 -4.333068 11.021253 -11.325844 -2.372458 -1.375375 -14.240776 -6.325967 -0.635936 -26.933784 -3.816116 -4.258096 -49.731354 -3.686661 -13.694916 -7.327726 -3.740309 18.127087 -14.100793 -3.224015 0.023561 -18.811043 -0.006939 -0.455879 -8.460522 2.568449 0.005232 -0.001084 -0.000183 -15.898536 -20.087494 -5.504814 30.391699 -7.204367 1.75492 -0.008713 -8.163741 0.00017 -1.85303 -22.878656 -6.18421 -0.005903 0.000454 0.00335 167.651245 4.466225 -5.105172 44.188999 0.193238 -0.368385 -100.43486 2.388991 0.959131 -5.932757 1.561148 2.11814 -0.996944 5.8e-05 -0.000181 -27.609789 -9.928467 -6.160827 103.690681 0.019128 0.049052 -70.164764 -1.4978 3.89462 -9.630132 0.688272 1.443752 -1.001214 0.00097 0.000577 
